<?xml version="1.0" encoding="utf-8"?>
<!-- Generator: Adobe Illustrator 23.0.3, SVG Export Plug-In . SVG Version: 6.00 Build 0)  -->
<svg version="1.1" id="Camada_1" xmlns="http://www.w3.org/2000/svg" xmlns:xlink="http://www.w3.org/1999/xlink" x="0px" y="0px"
	 viewBox="0 0 314.36 125.97" style="enable-background:new 0 0 314.36 125.97;" xml:space="preserve">
<style type="text/css">
	.st0{fill:#CC3A17;}
	.st1{fill:none;stroke:#CD3A17;stroke-width:4;stroke-miterlimit:10;}
</style>
<g>
	<g>
		<path class="st0" d="M160.43,43.14h5.65V73.3c0,4.08-1.22,7.27-3.67,9.57c-2.45,2.3-5.71,3.45-9.79,3.45
			c-4.23,0-7.53-1.08-9.89-3.25c-2.36-2.16-3.54-5.2-3.54-9.1h5.62c0,2.44,0.67,4.34,2,5.71c1.34,1.37,3.27,2.05,5.81,2.05
			c2.32,0,4.2-0.73,5.63-2.19c1.43-1.46,2.16-3.51,2.18-6.14V43.14z"/>
		<path class="st0" d="M175.64,85.74V43.14h12.02c3.71,0,6.98,0.82,9.83,2.46c2.85,1.64,5.05,3.97,6.6,6.99
			c1.55,3.02,2.34,6.49,2.36,10.41v2.72c0,4.02-0.78,7.54-2.33,10.56c-1.55,3.02-3.76,5.34-6.64,6.96
			c-2.88,1.62-6.23,2.45-10.05,2.49H175.64z M181.26,47.73v33.41h5.91c4.33,0,7.7-1.35,10.11-4.04c2.41-2.69,3.61-6.53,3.61-11.51
			v-2.49c0-4.84-1.14-8.6-3.41-11.29c-2.27-2.68-5.5-4.04-9.67-4.08H181.26z"/>
		<path class="st0" d="M229.38,58.94c-0.82-0.14-1.71-0.21-2.66-0.21c-3.55,0-5.96,1.51-7.23,4.54v22.47h-5.41V54.08h5.27l0.09,3.66
			c1.77-2.83,4.29-4.24,7.55-4.24c1.05,0,1.85,0.14,2.4,0.41V58.94z"/>
		<path class="st0" d="M234.38,45.69c0-0.88,0.27-1.62,0.8-2.22c0.54-0.6,1.33-0.91,2.38-0.91c1.05,0,1.85,0.3,2.4,0.91
			c0.55,0.61,0.82,1.35,0.82,2.22s-0.27,1.61-0.82,2.19c-0.55,0.59-1.35,0.88-2.4,0.88c-1.05,0-1.85-0.29-2.38-0.88
			S234.38,46.56,234.38,45.69z M240.24,85.74h-5.41V54.08h5.41V85.74z"/>
		<path class="st0" d="M259.34,78.39l7.84-24.31h5.53l-11.35,31.65h-4.12l-11.47-31.65h5.53L259.34,78.39z"/>
		<path class="st0" d="M290.67,86.32c-4.29,0-7.78-1.41-10.47-4.23c-2.69-2.82-4.04-6.59-4.04-11.31v-1c0-3.14,0.6-5.94,1.8-8.41
			c1.2-2.47,2.88-4.4,5.03-5.79c2.15-1.39,4.49-2.09,7.01-2.09c4.12,0,7.31,1.36,9.59,4.07c2.28,2.71,3.42,6.59,3.42,11.64v2.25
			h-21.44c0.08,3.12,0.99,5.64,2.74,7.56c1.74,1.92,3.96,2.88,6.66,2.88c1.91,0,3.53-0.39,4.86-1.17c1.33-0.78,2.49-1.81,3.48-3.1
			l3.31,2.57C299.95,84.28,295.97,86.32,290.67,86.32z M290,57.94c-2.18,0-4.02,0.8-5.5,2.38c-1.48,1.59-2.4,3.82-2.75,6.68h15.86
			V66.6c-0.16-2.75-0.9-4.88-2.22-6.39C294.05,58.7,292.26,57.94,290,57.94z"/>
	</g>
	<g>
		<polygon class="st1" points="12.44,36.66 12.44,89.28 58.02,115.6 103.6,89.28 103.6,36.66 58.02,10.34 		"/>
		<line class="st1" x1="68.76" y1="109.39" x2="34.46" y2="89.59"/>
		<line class="st1" x1="103.6" y1="76.88" x2="69.92" y2="96.32"/>
		<line class="st1" x1="92.85" y1="54.78" x2="92.85" y2="69.93"/>
		<line class="st1" x1="46.1" y1="15.87" x2="103.58" y2="49.06"/>
		<line class="st1" x1="12.44" y1="49.06" x2="47.1" y2="29.06"/>
		<line class="st1" x1="23.19" y1="95.49" x2="23.19" y2="55.57"/>
		<line class="st1" x1="58.02" y1="35.46" x2="12.44" y2="61.77"/>
		<line class="st1" x1="103.58" y1="61.67" x2="36.43" y2="22.9"/>
		<line class="st1" x1="81.74" y1="76.35" x2="81.74" y2="49.06"/>
		<line class="st1" x1="58.1" y1="90" x2="103.6" y2="63.73"/>
		<line class="st1" x1="34.46" y1="76.35" x2="80.23" y2="102.77"/>
		<line class="st1" x1="34.46" y1="49.06" x2="34.46" y2="101.07"/>
	</g>
</g>
</svg>
